<svg version="1" xmlns="http://www.w3.org/2000/svg" width="346.667" height="346.667" viewBox="0 0 260.000000 260.000000"><path d="M26.1 52c-.4.3-.7 35.6-.6 78.5v78h11.8l11.7.1v-51.5c0-28.3.2-51.2.5-51 .2.3 2 8.6 4 18.4 2 9.9 5.2 25.3 7 34.2 1.9 9 3.6 17.3 3.9 18.5.8 4.5 5.7 28.3 6.2 29.8.3 1.2 2 1.6 8.3 1.5 4.4 0 8.2-.3 8.5-.6.5-.4 2.4-8.8 3.9-16.9.6-2.8 5.7-27.4 6.4-30.5.2-1.1.6-3.1.9-4.5.2-1.4 1.3-6.6 2.4-11.5 1-5 2.1-10.4 2.4-12 .3-1.7 1.5-7.2 2.6-12.4s2-9.8 2-10.3c0-.4.3-.8.8-.8.4 0 .7 22.4.7 49.7v49.8h24v-157h-16.3c-8.9-.1-16.7.2-17.2.5-.6.4-1.7 4-2.4 8.1-2.2 11.2-2.1 10.6-7.6 38.4-2.8 14.3-5.3 26.7-5.5 27.5-.3.8-.7 3.3-1 5.5-.4 2.2-.8 4.8-1.1 5.7-.3 1-.7 3-1 4.5-.7 4.8-1.5 7.6-1.9 7.2-.2-.3-1.3-5.1-2.4-10.9-1.2-5.8-2.3-11.4-2.5-12.5-6.1-28.9-11.1-53.1-12.7-61-1.1-5.5-2.2-10.7-2.4-11.5-.4-1.3-3-1.5-16.6-1.5-8.8 0-16.4.2-16.8.5zM159.6 52c-.1.3-.2 35.6-.2 78.5l.1 78h11.8l11.7.1v-6.1c.1-3.3.1-13.7.1-23 0-16.9 0-17 3.1-23.5 6.2-13 5.1-13.7 14 9.2 4.3 11.2 9.2 23.9 10.9 28.3 1.7 4.4 3.7 9.6 4.5 11.5l1.5 3.5H242.8l-1-2.5c-2.5-6.6-29.2-73.9-30.4-76.7-.8-1.8-2.1-5.1-2.9-7.3l-1.4-4.1 16.4-32.6c9-18 16.2-33 16-33.3-.2-.3-5.9-.6-12.7-.5h-12.3L198.9 83l-15.7 31.5V88c0-14.6-.1-28.8-.1-31.5l-.1-5.1-11.6.1c-6.4 0-11.7.2-11.8.5z"/></svg>